<?xml version="1.0" standalone="no"?>
<!DOCTYPE svg PUBLIC "-//W3C//DTD SVG 20010904//EN"
 "http://www.w3.org/TR/2001/REC-SVG-20010904/DTD/svg10.dtd">
<svg version="1.0" xmlns="http://www.w3.org/2000/svg"
 width="800.000000pt" height="800.000000pt" viewBox="0 0 800.000000 800.000000"
 preserveAspectRatio="xMidYMid meet">
<metadata>
Created by potrace 1.16, written by Peter Selinger 2001-2019
</metadata>
<g transform="translate(0.000000,800.000000) scale(0.100000,-0.100000)"
fill="#000000" stroke="none">
<path d="M3740 7944 c-92 -12 -314 -56 -394 -79 -379 -110 -708 -302 -995
-579 -396 -384 -638 -876 -701 -1425 -19 -158 -8 -514 20 -671 129 -727 593
-1355 1247 -1688 358 -183 672 -257 1083 -256 244 0 374 15 585 69 656 167
1215 617 1521 1224 170 339 246 663 247 1051 1 395 -76 725 -247 1065 -310
613 -859 1055 -1521 1226 -196 51 -279 61 -550 64 -143 2 -276 1 -295 -1z
m572 -773 c684 -146 1192 -697 1278 -1385 17 -134 8 -381 -19 -508 -66 -307
-218 -587 -441 -808 -135 -135 -246 -216 -408 -299 -233 -118 -456 -172 -717
-174 -168 -1 -259 11 -421 53 -266 70 -515 213 -714 410 -648 641 -637 1666
23 2296 226 216 525 368 817 418 52 8 106 18 120 20 14 3 106 3 205 1 132 -3
206 -9 277 -24z"/>
<path d="M5607 2324 c-18 -280 -111 -551 -275 -799 -88 -133 -291 -337 -422
-424 -249 -166 -522 -260 -802 -277 l-108 -7 0 -375 0 -375 148 6 c373 14 766
138 1110 351 276 171 546 438 733 725 224 343 369 807 369 1183 l0 98 -373 0
-374 0 -6 -106z"/>
</g>
</svg>
